<?xml version="1.0" standalone="no"?>
<!DOCTYPE svg PUBLIC "-//W3C//DTD SVG 20010904//EN"
 "http://www.w3.org/TR/2001/REC-SVG-20010904/DTD/svg10.dtd">
<svg version="1.0" xmlns="http://www.w3.org/2000/svg"
 width="1100.000000pt" height="750.000000pt" viewBox="0 0 1100.000000 750.000000"
 preserveAspectRatio="xMidYMid meet">
<metadata>
Created by potrace 1.15, written by Peter Selinger 2001-2017
</metadata>
<g transform="translate(0.000000,750.000000) scale(0.100000,-0.100000)"
fill="#000000" stroke="none">
<path d="M4290 6565 c-173 -47 -324 -171 -398 -326 -52 -108 -66 -172 -66
-289 1 -173 60 -316 184 -441 176 -176 421 -232 658 -149 176 62 312 204 378
395 24 69 28 95 27 195 0 97 -4 128 -27 197 -62 190 -208 339 -396 404 -85 29
-277 37 -360 14z"/>
<path d="M556 6518 c-3 -29 -15 -210 -26 -403 -11 -192 -23 -376 -26 -407 l-6
-58 76 0 76 0 0 48 c0 26 4 124 9 217 6 94 13 242 17 330 6 131 9 153 16 120
37 -156 77 -309 130 -493 l61 -213 60 3 59 3 93 295 c50 162 100 329 111 370
l19 75 16 -375 c10 -206 18 -376 18 -377 1 -2 35 -3 76 -3 l75 0 -5 78 c-6 74
-45 803 -45 830 0 10 -24 12 -102 10 l-102 -3 -64 -200 c-35 -110 -80 -265
-101 -344 l-38 -145 -37 155 c-20 85 -63 240 -94 344 l-57 190 -102 3 -101 3
-6 -53z"/>
<path d="M1672 6305 c-29 -8 -65 -21 -81 -30 l-29 -15 14 -46 c8 -26 15 -49
17 -50 1 -1 29 7 62 18 116 39 211 13 229 -64 6 -27 5 -28 -31 -28 -56 0 -165
-26 -211 -49 -123 -63 -160 -230 -75 -332 32 -37 95 -68 139 -69 54 0 130 29
162 62 l31 31 7 -41 7 -42 66 0 66 0 -3 217 c-1 120 -7 241 -13 270 -13 65
-57 126 -111 154 -54 28 -173 35 -246 14z m218 -385 c0 -72 -19 -113 -63 -140
-75 -46 -157 -7 -157 76 0 73 67 120 178 123 l42 1 0 -60z"/>
<path d="M2340 6311 c-143 -47 -200 -179 -126 -292 21 -31 46 -48 121 -84 96
-46 115 -64 115 -109 0 -64 -98 -85 -201 -42 l-56 23 -15 -62 -15 -62 46 -17
c71 -26 167 -31 233 -12 68 20 115 56 139 111 53 115 -9 228 -152 279 -95 34
-126 93 -71 136 22 18 36 21 78 17 29 -3 65 -12 81 -20 l29 -15 16 60 15 60
-35 15 c-42 17 -166 26 -202 14z"/>
<path d="M2860 6311 c-143 -47 -200 -179 -126 -292 21 -31 46 -48 121 -84 96
-46 115 -64 115 -109 0 -64 -98 -85 -201 -42 l-56 23 -15 -62 -15 -62 46 -17
c71 -26 167 -31 233 -12 68 20 115 56 139 111 53 115 -9 228 -152 279 -95 34
-126 93 -71 136 22 18 36 21 78 17 29 -3 65 -12 81 -20 l29 -15 16 60 15 60
-35 15 c-42 17 -166 26 -202 14z"/>
<path d="M6946 6034 c-299 -40 -572 -141 -794 -293 -423 -290 -672 -738 -764
-1376 -21 -144 -18 -680 5 -825 55 -355 166 -656 335 -910 101 -152 294 -348
437 -442 315 -208 641 -298 1080 -298 455 0 820 99 1227 332 260 149 349 247
378 418 7 44 10 238 8 600 -4 593 -3 588 -71 686 -47 67 -112 109 -205 131
-69 16 -130 18 -612 18 -608 0 -598 1 -688 -80 -86 -77 -119 -202 -88 -325 20
-76 51 -120 109 -154 85 -50 144 -57 525 -63 l352 -6 0 -317 0 -316 -92 -51
c-172 -95 -365 -169 -530 -204 -121 -26 -383 -36 -499 -19 -521 76 -843 484
-919 1165 -13 116 -13 434 0 550 52 459 233 812 513 998 292 194 725 218 1015
56 142 -79 245 -201 444 -527 142 -235 483 -209 604 45 71 152 24 393 -121
614 -65 99 -250 284 -350 349 -202 131 -444 217 -705 249 -116 15 -473 12
-594 -5z"/>
<path d="M9930 5925 c-121 -34 -211 -126 -253 -259 l-22 -71 0 -1630 c0 -1554
1 -1633 18 -1690 40 -130 101 -204 206 -254 50 -23 68 -26 166 -26 98 0 116 3
167 27 104 48 170 133 206 261 16 58 17 177 17 1682 0 1525 -1 1624 -18 1685
-49 176 -170 276 -348 285 -57 4 -102 0 -139 -10z"/>
<path d="M3275 5851 c-84 -36 -82 -181 3 -205 72 -20 133 46 118 128 -11 57
-74 97 -121 77z"/>
<path d="M712 5279 c-66 -13 -153 -56 -196 -97 -50 -48 -101 -154 -118 -245
-10 -58 -13 -413 -13 -1857 0 -1620 2 -1793 17 -1867 40 -200 134 -299 313
-332 38 -7 290 -11 719 -11 684 0 813 6 985 45 244 56 464 172 634 334 355
339 550 812 607 1476 13 155 13 566 -1 720 -34 395 -111 691 -254 980 -160
321 -390 568 -655 704 -154 79 -338 127 -579 151 -124 12 -1397 12 -1459 -1z
m1378 -741 c213 -47 317 -98 427 -207 182 -183 286 -428 333 -791 29 -217 29
-654 0 -871 -53 -405 -171 -682 -372 -875 -88 -84 -159 -125 -281 -163 -112
-34 -214 -41 -629 -41 l-398 0 0 1491 0 1491 403 -5 c385 -4 407 -5 517 -29z"/>
<path d="M4370 4211 c-90 -28 -164 -95 -196 -177 -18 -47 -19 -91 -19 -1004
l0 -955 25 -50 c34 -69 99 -129 168 -155 84 -32 225 -26 305 13 68 34 119 90
149 166 l23 56 0 930 c0 1066 6 994 -89 1090 -69 71 -136 95 -254 94 -48 0
-98 -4 -112 -8z"/>
<path d="M5340 1190 l0 -290 45 0 45 0 0 290 0 290 -45 0 -45 0 0 -290z"/>
<path d="M5847 1449 c-81 -19 -131 -62 -169 -144 -18 -40 -22 -67 -22 -140 0
-77 4 -99 28 -152 26 -57 34 -65 84 -90 49 -24 67 -27 142 -26 47 1 99 6 115
10 l30 9 3 142 3 142 -86 0 -85 0 0 -35 c0 -34 1 -35 40 -35 l40 0 0 -80 0
-79 -36 -7 c-106 -20 -194 74 -194 207 0 157 113 245 251 195 l37 -13 6 36 c7
42 1 50 -50 62 -47 10 -86 10 -137 -2z"/>
<path d="M3528 1443 l-48 -4 0 -269 0 -268 49 -7 c54 -7 146 0 201 17 57 17
100 57 128 117 22 47 26 71 27 146 0 138 -37 212 -126 249 -39 16 -156 26
-231 19z m178 -82 c24 -11 50 -33 63 -55 44 -70 38 -210 -11 -279 -27 -37 -91
-66 -145 -67 l-43 0 0 203 c0 112 3 207 7 210 13 13 89 6 129 -12z"/>
<path d="M7930 1175 l0 -275 45 0 45 0 0 275 0 275 -45 0 -45 0 0 -275z"/>
<path d="M4785 1375 c-36 -11 -40 -15 -43 -48 -3 -32 -7 -37 -28 -37 -21 0
-24 -5 -24 -35 0 -30 3 -35 24 -35 24 0 24 0 28 -129 3 -112 6 -133 24 -157
25 -34 64 -48 110 -40 31 6 34 10 34 41 0 32 -3 35 -30 35 -42 0 -50 23 -50
144 l0 106 40 0 c39 0 40 1 40 35 0 34 -1 35 -39 35 l-40 0 -3 48 -3 48 -40
-11z"/>
<path d="M8875 1375 c-36 -11 -40 -15 -43 -48 -3 -32 -7 -37 -28 -37 -21 0
-24 -5 -24 -35 0 -30 3 -35 24 -35 24 0 24 0 28 -129 3 -112 6 -133 24 -157
25 -34 64 -48 110 -40 31 6 34 10 34 41 0 32 -3 35 -30 35 -42 0 -50 23 -50
144 l0 106 40 0 c39 0 40 1 40 35 0 34 -1 35 -39 35 l-40 0 -3 48 -3 48 -40
-11z"/>
<path d="M9315 1375 c-36 -11 -40 -15 -43 -48 -3 -32 -7 -37 -28 -37 -21 0
-24 -5 -24 -35 0 -30 3 -35 24 -35 24 0 24 0 28 -129 3 -112 6 -133 24 -157
25 -34 64 -48 110 -40 31 6 34 10 34 41 0 32 -3 35 -30 35 -42 0 -50 23 -50
144 l0 106 40 0 c39 0 40 1 40 35 0 34 -1 35 -39 35 l-40 0 -3 48 -3 48 -40
-11z"/>
<path d="M9965 1375 c-36 -11 -40 -15 -43 -48 -3 -32 -7 -37 -28 -37 -21 0
-24 -5 -24 -35 0 -30 3 -35 24 -35 24 0 24 0 28 -129 3 -112 6 -133 24 -157
25 -34 64 -48 110 -40 31 6 34 10 34 41 0 32 -3 35 -30 35 -42 0 -50 23 -50
144 l0 106 40 0 c39 0 40 1 40 35 0 34 -1 35 -39 35 l-40 0 -3 48 -3 48 -40
-11z"/>
<path d="M4236 1290 c-64 -20 -116 -107 -116 -195 0 -89 52 -175 116 -191 35
-9 87 3 112 27 l22 20 0 -36 c0 -82 -56 -127 -133 -108 -23 6 -48 12 -56 14
-14 4 -35 -47 -25 -62 2 -4 30 -13 61 -19 68 -15 148 -1 181 31 52 48 57 69
60 302 l4 217 -37 0 c-28 0 -38 -5 -42 -20 -5 -19 -6 -19 -32 0 -33 23 -78 31
-115 20z m87 -71 c34 -15 47 -49 47 -119 0 -73 -12 -107 -44 -121 -60 -28
-116 27 -116 114 0 58 22 110 53 125 29 14 32 14 60 1z"/>
<path d="M5030 1288 c-47 -13 -53 -21 -45 -56 6 -30 6 -30 40 -16 48 20 91 18
115 -6 33 -33 25 -47 -32 -54 -128 -17 -188 -104 -141 -203 30 -64 109 -78
176 -31 27 19 27 19 27 -1 0 -18 6 -21 41 -21 l41 0 -4 154 c-3 137 -5 158
-24 183 -41 56 -112 75 -194 51z"/>
<path d="M6200 1288 c-47 -13 -53 -21 -45 -56 6 -30 6 -30 40 -16 48 20 91 18
115 -6 33 -33 25 -47 -32 -54 -128 -17 -188 -104 -141 -203 30 -64 109 -78
176 -31 27 19 27 19 27 -1 0 -18 6 -21 41 -21 l41 0 -4 154 c-3 137 -5 158
-24 183 -41 56 -112 75 -194 51z"/>
<path d="M6643 1289 c-18 -5 -39 -19 -48 -31 l-15 -22 0 27 c0 25 -3 27 -40
27 l-40 0 0 -195 0 -195 45 0 45 0 0 140 c0 136 1 142 25 165 25 26 42 30 61
17 27 -18 34 -56 34 -186 l0 -136 45 0 45 0 0 140 c0 136 1 142 25 165 31 32
48 31 74 -1 19 -24 21 -40 21 -165 l0 -139 46 0 46 0 -4 153 c-4 174 -15 208
-74 233 -42 17 -100 6 -129 -26 -18 -20 -19 -20 -39 -1 -20 19 -69 42 -84 40
-4 0 -21 -5 -39 -10z"/>
<path d="M7194 1281 c-108 -66 -127 -251 -35 -342 43 -43 100 -55 180 -38 52
11 53 12 47 42 -3 17 -8 32 -9 33 -2 2 -19 -2 -39 -8 -51 -15 -102 -3 -132 33
-14 17 -26 39 -26 50 0 18 8 19 116 19 l117 0 -6 59 c-9 107 -65 171 -149 171
-18 0 -47 -9 -64 -19z"/>
<path d="M7533 1284 c-33 -17 -63 -66 -63 -106 0 -35 35 -85 72 -104 49 -25
68 -44 68 -71 0 -37 -40 -50 -90 -30 -44 17 -46 16 -51 -28 -4 -27 0 -31 36
-43 57 -19 121 -7 156 28 37 36 45 74 28 124 -11 33 -24 46 -68 71 -64 36 -81
57 -65 83 12 18 64 22 96 8 12 -6 18 0 23 24 4 18 3 36 -2 41 -19 19 -106 21
-140 3z"/>
<path d="M8273 1293 c-12 -2 -33 -15 -47 -28 l-25 -23 -3 22 c-2 16 -11 22
-40 24 l-38 3 0 -195 0 -196 45 0 45 0 0 133 c0 146 9 176 54 192 25 8 31 6
52 -18 23 -27 24 -35 24 -168 l0 -139 46 0 46 0 -4 153 c-4 173 -15 208 -73
233 -35 14 -42 15 -82 7z"/>
<path d="M8583 1284 c-33 -17 -63 -66 -63 -106 0 -35 35 -85 72 -104 49 -25
68 -44 68 -71 0 -37 -40 -50 -90 -30 -44 17 -46 16 -51 -28 -4 -27 0 -31 36
-43 57 -19 121 -7 156 28 37 36 45 74 28 124 -11 33 -24 46 -68 71 -64 36 -81
57 -65 83 12 18 64 22 96 8 12 -6 18 0 23 24 4 18 3 36 -2 41 -19 19 -106 21
-140 3z"/>
<path d="M10234 1281 c-108 -66 -127 -251 -35 -342 43 -43 100 -55 180 -38 52
11 53 12 47 42 -3 17 -8 32 -9 33 -2 2 -19 -2 -39 -8 -51 -15 -102 -3 -132 33
-14 17 -26 39 -26 50 0 18 8 19 116 19 l117 0 -6 59 c-9 107 -65 171 -149 171
-18 0 -47 -9 -64 -19z"/>
<path d="M3960 1095 l0 -195 45 0 45 0 0 195 0 195 -45 0 -45 0 0 -195z"/>
<path d="M4550 1095 l0 -195 45 0 45 0 0 195 0 195 -45 0 -45 0 0 -195z"/>
<path d="M9070 1095 l0 -195 45 0 45 0 0 195 0 195 -45 0 -45 0 0 -195z"/>
<path d="M9502 1138 c3 -132 6 -158 23 -188 38 -64 134 -75 192 -20 l22 20 3
-23 c2 -18 11 -23 41 -25 l37 -3 0 195 0 196 -45 0 -45 0 0 -139 c0 -118 -3
-142 -17 -159 -27 -32 -65 -37 -94 -14 -23 19 -24 25 -27 166 l-3 146 -46 0
-45 0 4 -152z"/>
</g>
</svg>
